<?xml version="1.0" encoding="utf-8"?>
<!-- Generator: Adobe Illustrator 22.0.1, SVG Export Plug-In . SVG Version: 6.00 Build 0)  -->
<svg version="1.1" id="图层_1" xmlns="http://www.w3.org/2000/svg" xmlns:xlink="http://www.w3.org/1999/xlink" x="0px" y="0px"
	 viewBox="0 0 50 50" style="enable-background:new 0 0 50 50;" xml:space="preserve">
<style type="text/css">
	.st0{fill:#00A0EA;}
	.st1{opacity:0.75;fill:#FFFFFF;enable-background:new    ;}
</style>
<path id="bg_1_" class="st0" d="M24.7,3.4c-9.2,0-17.1,8.1-17.1,18.1c0,4.8,1.8,9.4,5.1,12.9l11.1,11.8c0.6,0.6,1.8,0.6,2.4,0
	l11.1-11.8c3.3-3.5,5.1-8.1,5.1-12.9C42.2,11.5,34.3,3.4,24.7,3.4z"/>
<path class="st1" d="M18.2,20.6c-1.1,0-2,0.8-2,1.5v8c0,0.8,0.9,1.5,2,1.5s2-0.6,2-1.5v-8C20.2,21.4,19.3,20.6,18.2,20.6z"/>
<path class="st1" d="M24.6,11.5c-1.1,0-2,0.8-2,1.5v17.2c0,0.8,0.9,1.5,2,1.5s2-0.8,2-1.5V13C26.6,12.2,25.7,11.5,24.6,11.5z"/>
<path class="st1" d="M31,14.5c-1.1,0-2,0.8-2,1.5v14.1c0,0.8,0.9,1.5,2,1.5c1.1,0,2-0.8,2-1.5V16C33,15.3,32.1,14.5,31,14.5z"/>
</svg>
