<?xml version="1.0" encoding="utf-8"?>
<!-- Generator: Adobe Illustrator 21.0.0, SVG Export Plug-In . SVG Version: 6.00 Build 0)  -->
<svg version="1.1" id="图层_1" xmlns="http://www.w3.org/2000/svg" xmlns:xlink="http://www.w3.org/1999/xlink" x="0px" y="0px"
	 viewBox="0 0 27 22" style="enable-background:new 0 0 27 22;" xml:space="preserve">
<style type="text/css">
	.st0{opacity:0.8;fill:#81BBFF;enable-background:new    ;}
</style>
<path class="st0" d="M26,22h-5c-0.6,0-1-0.4-1-1V1c0-0.6,0.4-1,1-1h5c0.6,0,1,0.4,1,1v20C27,21.6,26.6,22,26,22z M16,22h-5
	c-0.6,0-1-0.4-1-1V10c0-0.6,0.4-1,1-1h5c0.6,0,1,0.4,1,1v11C17,21.6,16.6,22,16,22z M6,22H1c-0.6,0-1-0.4-1-1V6c0-0.6,0.4-1,1-1h5
	c0.6,0,1,0.4,1,1v15C7,21.6,6.6,22,6,22z"/>
</svg>
