<?xml version="1.0" encoding="utf-8"?>
<!-- Generator: Adobe Illustrator 22.1.0, SVG Export Plug-In . SVG Version: 6.00 Build 0)  -->
<svg version="1.1" id="图层_1" xmlns="http://www.w3.org/2000/svg" xmlns:xlink="http://www.w3.org/1999/xlink" x="0px" y="0px"
	 viewBox="0 0 54 60" style="enable-background:new 0 0 54 60;" xml:space="preserve">
<style type="text/css">
	.st0{fill:#FFFFFF;}
</style>
<path id="形状_1" class="st0" d="M18,28.5h-6v6h6V28.5z M30,28.5h-6v6h6V28.5z M42,28.5h-6v6h6V28.5z M48,6h-3V0h-6v6H15V0H9v6H6
	c-3.3,0-6,2.7-6,6c0,0,0,0,0,0l0,42c0,3.3,2.7,6,6,6h42c3.3,0,6-2.7,6-6V12C54,8.7,51.3,6,48,6z M49.5,55.5h-45v-36h45V55.5z
	 M18,40.5h-6v6h6V40.5z M30,40.5h-6v6h6V40.5z M42,40.5h-6v6h6V40.5z"/>
</svg>
