<?xml version="1.0" encoding="utf-8"?>
<!-- Generator: Adobe Illustrator 21.0.0, SVG Export Plug-In . SVG Version: 6.00 Build 0)  -->
<svg version="1.1" id="图层_1" xmlns="http://www.w3.org/2000/svg" xmlns:xlink="http://www.w3.org/1999/xlink" x="0px" y="0px"
	 viewBox="0 0 31.5 31.5" style="enable-background:new 0 0 31.5 31.5;" xml:space="preserve">
<style type="text/css">
	.st0{opacity:0.8;fill:#66C5F5;fill-opacity:0.251;stroke:#66C5F5;enable-background:new    ;}
	.st1{fill:#66C5F5;}
</style>
<path class="st0" d="M5.8,0.8h20c2.8,0,5,2.2,5,5v20c0,2.8-2.2,5-5,5h-20c-2.8,0-5-2.2-5-5v-20C0.8,3,3,0.8,5.8,0.8z"/>
<path class="st1" d="M15.6,7.3c-1.1,0-2,0.9-2,2c0,1.1,0.9,2,2,2s2-0.9,2-2C17.6,8.2,16.7,7.3,15.6,7.3z M12.1,12.4
	c-0.2,0-0.4,0.2-0.4,0.4V15c0,0.2,0.2,0.4,0.4,0.4h1.8v5.9h-1.8c-0.2,0-0.4,0.2-0.4,0.4v2.2c0,0.2,0.2,0.4,0.4,0.4h7.3
	c0.2,0,0.4-0.2,0.4-0.4v-2.2c0-0.2-0.2-0.4-0.4-0.4h-1.8v-8.5c0-0.2-0.2-0.4-0.4-0.4H12.1z"/>
</svg>
