<?xml version="1.0" encoding="utf-8"?>
<!-- Generator: Adobe Illustrator 22.0.1, SVG Export Plug-In . SVG Version: 6.00 Build 0)  -->
<svg version="1.1" id="图层_1" xmlns="http://www.w3.org/2000/svg" xmlns:xlink="http://www.w3.org/1999/xlink" x="0px" y="0px"
	 viewBox="0 0 50 50" style="enable-background:new 0 0 50 50;" xml:space="preserve">
<style type="text/css">
	.st0{fill:#FFE1CC;}
	.st1{fill:#FFEDE1;}
	.st2{fill:#01DBFF;}
	.st3{fill:#395780;}
	.st4{fill:#EFEFEF;}
	.st5{fill:#E6E6E6;}
</style>
<title>1</title>
<g id="_1.1">
	<path class="st0" d="M17.2,32.2c1.7-0.3,3.2-1.1,4.4-2.4c0.9-1.1,0.7-4.9,0.7-4.9h5.4c0,0-0.2,3.8,0.7,4.9c1.2,1.2,2.7,2.1,4.4,2.4
		c0,0,0.4,0.1-0.5,1.5c-0.4,0.7-3.9,1-7.3,1s-6.9-0.3-7.3-1C16.8,32.3,17.2,32.2,17.2,32.2z"/>
	<path class="st1" d="M16.3,17.4c0.4-0.1,0.8,0.1,1.1,0.4v-0.2c-0.1-4.7,1.7-9.6,7.5-9.7h0.2c5.9,0.1,7.6,5,7.5,9.7
		c0,0.1,0,0.1,0,0.2c0.3-0.3,0.7-0.5,1.1-0.4c1.1,0.3,0.6,4-1.7,4.6c-0.1,0.9-0.3,1.7-0.5,2.6c-1,1.4-2.2,2.7-3.6,3.6
		c-0.9,0.3-1.9,0.4-2.9,0.4S23,28.5,22,28.2c-1.4-0.9-2.7-2.2-3.6-3.6c-0.2-0.8-0.4-1.7-0.5-2.5l0,0C15.6,21.4,15.3,17.7,16.3,17.4z
		"/>
	<path class="st2" d="M9.8,45c0.4-3.9,1.1-7.1,2.1-9c0.8-3.2,4.2-4.9,8.8-4.9c1.4,0.7,2.9,1.1,4.4,1.3c1.5-0.2,2.9-0.7,4.2-1.4
		c4.5,0,8.1,1.7,8.9,4.9c1,1.8,1.7,5,2.1,9L9.8,45z"/>
	<path class="st3" d="M12.5,45v-0.8c1-0.5,1.7-1.4,2-2.5c0.4-1.4,0.5-2.9,0.3-4.4c-0.1-1.6-0.4-3.2-0.7-4.8c-0.1-0.5,0-0.9,0.7-1
		c1.5-0.4,3.1-0.8,4.6-1.1c0.9-0.2,1.1-0.1,1.3,0.7c0.4,1.6,0.9,3.2,1.6,4.8c0.3,0.8,1,1.5,1.9,1.6c1.4,0.4,2.9-0.3,3.5-1.7
		c0.6-1.5,1.1-3,1.5-4.5c0.3-1.1,0.5-1.2,1.7-0.9c1,0.2,1.9,0.5,2.9,0.7c2.3,0.6,2.3,0.3,1.9,2.5c-0.5,2.1-0.6,4.2-0.5,6.3
		c0.1,1.7,0.4,3.3,2.3,4.2V45H12.5z"/>
	<path class="st2" d="M34.9,21.1L33,22.2c-0.1,0.1-0.2,0.2-0.3,0.3l-3.4,5.3c-0.2,0.3-0.5,0.4-0.8,0.5h-0.4c-0.9,0.8-2,1.2-3.2,1.1
		c-1.2,0.1-2.3-0.3-3.2-1.1h-0.4c-0.3,0-0.6-0.2-0.8-0.5l-3.4-5.3c-0.1-0.1-0.2-0.2-0.3-0.3L15,21.1c-0.4-0.2-0.6-0.7-0.4-1.2
		l1.5-4.3c0.1-0.2,0.1-0.4,0-0.6c0-0.4-0.1-1-0.1-1.6C16,8.8,20.1,5,25.3,5s9.2,3.8,9.2,8.4c0,0.7-0.1,1.4-0.3,2.1
		c-0.1,0.2-0.1,0.4,0,0.6l1.2,3.9C35.5,20.4,35.3,20.9,34.9,21.1z M31.8,17.9c0-0.5-0.3-0.9-0.8-1c-2-0.4-4-0.5-6-0.5s-4,0.2-6,0.5
		c-0.5,0.1-0.8,0.5-0.8,1v1.6c0,0.1,0,0.1,0,0.2l0.5,3c0,0.1,0.1,0.3,0.1,0.4l2.6,4.2l0,0c0.3-0.9,1.7-1.6,3.5-1.6s3.2,0.7,3.5,1.6
		l0,0l2.6-4.2c0.1-0.1,0.1-0.2,0.1-0.4l0.5-2.9c0-0.1,0-0.1,0-0.2L31.8,17.9z"/>
	<path class="st4" d="M23.6,13.1c0.4,0.5,0.9,0.8,1.4,1.1c0.5-0.3,1-0.6,1.3-1.1L25,13.7L23.6,13.1z M25,12.1c0.5,0,0.9-0.6,0.9-1.4
		S25.5,9.3,25,9.3s-0.9,0.6-0.9,1.4S24.5,12.1,25,12.1L25,12.1z M27,10.6c0.1-0.5-0.2-1-0.7-1.1c-0.1,0-0.2,0-0.3,0
		c0.8,1.8,0.3,2.8-1,3.2c0,0.4,0.9,0.3,1,0.1c0.1,0.2,1.4,0.1,1.1-0.7C27.4,12,28,10.9,27,10.6z M24,12.7c0.1,0.2,1,0.4,1-0.1
		c-1.3-0.4-1.8-1.4-1-3.2c-0.5-0.1-1,0.3-1,0.8c0,0.1,0,0.2,0,0.3c-1,0.3-0.4,1.5,0,1.5C22.6,12.8,23.9,13,24,12.7z"/>
	<path class="st5" d="M35.3,41.2h-5.4v1.1h6L35.3,41.2z M35.3,39h-5.4v1.1h5.4V39z M14.1,42.3h6v-1.1h-5.5L14.1,42.3z M14.7,40.1
		h5.4V39h-5.4L14.7,40.1z"/>
</g>
</svg>
