<?xml version="1.0" encoding="utf-8"?>
<!-- Generator: Adobe Illustrator 21.0.0, SVG Export Plug-In . SVG Version: 6.00 Build 0)  -->
<svg version="1.1" id="图层_1" xmlns="http://www.w3.org/2000/svg" xmlns:xlink="http://www.w3.org/1999/xlink" x="0px" y="0px"
	 viewBox="0 0 30 28" style="enable-background:new 0 0 30 28;" xml:space="preserve">
<style type="text/css">
	.st0{fill:#81BBFF;}
</style>
<path class="st0" d="M14.7,0.5c-0.1,0-0.2,0-0.3,0.1l-1.3,0.6c-0.1,0.1-0.2,0.2-0.3,0.3l-0.5,0.9h-0.9c-0.2,0-0.5,0.1-0.6,0.4
	l-0.5,0.9H9.6C9.4,3.7,9.1,3.9,9,4.1L8.6,5H7.7C7.5,5,7.3,5.1,7.2,5.3L6.1,6.9H1.3C1,6.9,0.7,7.2,0.7,7.6v3.2c0,0.4,0.3,0.6,0.6,0.6
	h1.3v8.3H0.7c-0.2,0-0.4,0.1-0.6,0.3c-0.1,0.2-0.1,0.4,0,0.6C0.2,20.9,0.5,21,0.7,21h1.9v1.9c0,0.4,0.3,0.6,0.6,0.6h2.6
	c0,0.2-0.1,0.4-0.1,0.6c0,2.1,1.7,3.8,3.8,3.8s3.8-1.7,3.8-3.8c0-0.2,0-0.4-0.1-0.6H16c0,0.2-0.1,0.4-0.1,0.6c0,2.1,1.7,3.8,3.8,3.8
	s3.8-1.7,3.8-3.8c0-0.2,0-0.4-0.1-0.6h2.6c0.4,0,0.6-0.3,0.6-0.6V21h1.9c0.2,0,0.4-0.1,0.6-0.3c0.1-0.2,0.1-0.4,0-0.6
	c-0.1-0.2-0.3-0.3-0.6-0.3h-1.9v-8.3h1.3c0.4,0,0.6-0.3,0.6-0.6V7.6c0-0.4-0.3-0.6-0.6-0.6h-4.8l-1.1-1.6C22.1,5.1,21.9,5,21.7,5
	h-0.9l-0.5-0.9c-0.1-0.2-0.3-0.4-0.6-0.4h-0.9l-0.5-0.9c-0.1-0.2-0.3-0.4-0.6-0.4H17l-0.5-0.9c-0.1-0.1-0.2-0.2-0.3-0.3L15,0.6
	C14.9,0.6,14.8,0.5,14.7,0.5z M2,8.2h4.3c0.1,0,0.1,0,0.2,0h16.4c0.1,0,0.1,0,0.2,0h4.4v1.9H2V8.2z M9.6,21.6c0.2,0,0.3,0,0.4,0
	c0,0,0.1,0,0.1,0c0.1,0,0.2,0.1,0.3,0.1c0.1,0,0.2,0.1,0.4,0.2c0,0,0,0,0.1,0c0.1,0.1,0.2,0.1,0.3,0.2c0.3,0.2,0.5,0.5,0.6,0.7h0
	c0.2,0.4,0.3,0.8,0.3,1.3c0,1.4-1.1,2.6-2.5,2.6s-2.5-1.1-2.5-2.6c0-0.5,0.1-0.9,0.3-1.3h0c0.2-0.3,0.4-0.5,0.6-0.7
	C8.1,22.1,8.2,22,8.3,22c0,0,0,0,0.1,0c0.1-0.1,0.2-0.1,0.3-0.2c0.1,0,0.2-0.1,0.3-0.1c0,0,0.1,0,0.1,0C9.3,21.6,9.4,21.6,9.6,21.6z
	 M19.8,21.6L19.8,21.6c0.2,0,0.3,0,0.5,0c0,0,0.1,0,0.1,0c0.1,0,0.2,0.1,0.3,0.1c0.1,0,0.2,0.1,0.3,0.1c0,0,0.1,0,0.1,0.1
	c0.1,0.1,0.2,0.1,0.3,0.2c0.3,0.2,0.5,0.5,0.6,0.7h0c0.2,0.4,0.3,0.8,0.3,1.3c0,1.4-1.1,2.6-2.5,2.6c-1.4,0-2.5-1.1-2.5-2.6
	c0-0.5,0.1-0.9,0.3-1.3h0c0.2-0.3,0.4-0.5,0.6-0.7c0.1-0.1,0.2-0.1,0.3-0.2c0,0,0,0,0.1,0c0.1-0.1,0.2-0.1,0.4-0.2
	c0.1,0,0.2-0.1,0.3-0.1c0,0,0.1,0,0.1,0C19.5,21.6,19.6,21.6,19.8,21.6z"/>
</svg>
