<?xml version="1.0" encoding="utf-8"?>
<!-- Generator: Adobe Illustrator 21.0.0, SVG Export Plug-In . SVG Version: 6.00 Build 0)  -->
<svg version="1.1" id="图层_1" xmlns="http://www.w3.org/2000/svg" xmlns:xlink="http://www.w3.org/1999/xlink" x="0px" y="0px"
	 viewBox="0 0 30 29" style="enable-background:new 0 0 30 29;" xml:space="preserve">
<style type="text/css">
	.st0{fill:#81BBFF;}
</style>
<path class="st0" d="M15,0c-0.1,0-0.3,0-0.4,0.1L0.3,11.5c-0.3,0.2-0.3,0.6-0.1,0.9c0.2,0.3,0.6,0.3,0.9,0.1l0.9-0.7v16.6
	c0,0.3,0.3,0.6,0.6,0.6h8.8V17.6h7.5V29h8.8c0.3,0,0.6-0.3,0.6-0.6V11.8l0.9,0.7c0.1,0.1,0.2,0.1,0.4,0.1c0.2,0,0.4-0.1,0.5-0.2
	c0.2-0.3,0.2-0.7-0.1-0.9L15.4,0.1C15.3,0.1,15.1,0,15,0z M21.3,2.5v0.7l3.8,3V2.5H21.3z"/>
</svg>
