<?xml version="1.0" encoding="utf-8"?>
<!-- Generator: Adobe Illustrator 21.0.0, SVG Export Plug-In . SVG Version: 6.00 Build 0)  -->
<svg version="1.1" id="图层_1" xmlns="http://www.w3.org/2000/svg" xmlns:xlink="http://www.w3.org/1999/xlink" x="0px" y="0px"
	 viewBox="0 0 29 29" style="enable-background:new 0 0 29 29;" xml:space="preserve">
<style type="text/css">
	.st0{fill:#81BBFF;}
</style>
<path class="st0" d="M6,0.6C5.6,0.6,5.2,0.7,4.8,1c0,0-4.1,3-4.1,4.7C0.9,10.5,5.5,16.1,9.3,20c3.9,3.9,9.5,8.5,14.2,8.7h0
	c1.7,0,4.6-4.1,4.6-4.1c0.3-0.5,0.5-1,0.4-1.5c0-0.5-0.3-1-0.6-1.2c-0.4-0.3-5.1-3.4-5.7-3.8c-0.6-0.3-1.4-0.3-2.2,0.1
	c-0.5,0.2-1.9,1-2.5,1.4c-0.6-0.4-2-1.5-4.2-3.7c-2.2-2.2-3.3-3.6-3.7-4.2c0.4-0.7,1.2-2.1,1.4-2.5c0.4-0.8,0.5-1.7,0.1-2.2
	C11,6.4,7.8,1.7,7.5,1.2C7.2,0.8,6.6,0.5,6,0.6z M14.7,1.9v1.3c6.3,0,11.4,5.2,11.4,11.5h1.3C27.4,7.6,21.7,1.9,14.7,1.9z M14.7,5.4
	v1.3c4.4,0,7.9,3.6,7.9,7.9h1.3C23.9,9.5,19.8,5.4,14.7,5.4z M14.7,8.9v1.3c2.5,0,4.5,2,4.5,4.5h1.3C20.4,11.4,17.9,8.9,14.7,8.9z"
	/>
</svg>
