<?xml version="1.0" encoding="utf-8"?>
<!-- Generator: Adobe Illustrator 21.0.0, SVG Export Plug-In . SVG Version: 6.00 Build 0)  -->
<svg version="1.1" id="图层_1" xmlns="http://www.w3.org/2000/svg" xmlns:xlink="http://www.w3.org/1999/xlink" x="0px" y="0px"
	 viewBox="0 0 32 32" style="enable-background:new 0 0 32 32;" xml:space="preserve">
<style type="text/css">
	.st0{fill:#81BBFF;}
</style>
<path class="st0" d="M31.3,14.1L17.9,0.8c-1-1-2.7-1-3.8,0L0.7,14.1c-1,1-1,2.7,0,3.8l13.3,13.3c0.5,0.5,1.2,0.8,1.9,0.8
	c0.7,0,1.4-0.3,1.9-0.8l13.3-13.3C32.2,16.9,32.3,15.2,31.3,14.1z M14,9.5c0-0.1,0.1-0.3,0.5-0.3h2.9c0.2,0,0.5,0.1,0.5,0.3v9.3
	c0,0.1-0.1,0.3-0.5,0.3h-2.9c-0.2,0-0.5-0.1-0.5-0.3V9.5z M18,24.1c0,0.1-0.1,0.3-0.5,0.3h-3c-0.2,0-0.5-0.1-0.5-0.3v-2.7
	c0-0.1,0.1-0.3,0.5-0.3h3v0.1c0.3,0,0.5,0.1,0.5,0.3V24.1z"/>
</svg>
