<?xml version="1.0" encoding="utf-8"?>
<!-- Generator: Adobe Illustrator 21.0.0, SVG Export Plug-In . SVG Version: 6.00 Build 0)  -->
<svg version="1.1" id="图层_1" xmlns="http://www.w3.org/2000/svg" xmlns:xlink="http://www.w3.org/1999/xlink" x="0px" y="0px"
	 viewBox="0 0 29 29" style="enable-background:new 0 0 29 29;" xml:space="preserve">
<style type="text/css">
	.st0{fill:#81BBFF;}
</style>
<path class="st0" d="M2.4,0.4c-1.1,0-1.9,0.9-1.9,1.9v20.4h4.8c0.4-1,0.9-5.2,0.9-7c0-0.4,0.3-0.6,0.6-0.6c0.4,0,0.6,0.3,0.6,0.6
	c0,1.8,0.5,6,0.9,7h1.8c0.4-2.1,1.1-13.4,1.1-18.5c0-0.4,0.3-0.6,0.6-0.6s0.6,0.3,0.6,0.6c0,5.3,0.6,16.4,1.1,18.5h3.1
	c0.4-1.5,1-8.5,1-12.1c0-0.4,0.3-0.6,0.6-0.6c0.4,0,0.6,0.3,0.6,0.6c0,3.6,0.5,10.6,1,12.1h2.1c0.3-0.3,0.7-1.5,0.7-3.2
	c0-0.4,0.3-0.6,0.6-0.6s0.6,0.3,0.6,0.6c0,1.7,0.5,2.9,0.7,3.2h3.7V2.4c0-1.1-0.9-1.9-1.9-1.9H2.4z M11.9,19.1c-0.4,5-0.7,5-1.3,5
	H8.1c-0.5,0-0.9-0.4-1.3-2.3c-0.4,1.9-0.7,2.3-1.3,2.3H0.5v2.6c0,1.1,0.9,1.9,1.9,1.9h24.2c1.1,0,1.9-0.9,1.9-1.9v-2.6h-3.8
	c-0.5,0-1-0.4-1.3-1.1c-0.3,0.7-0.7,1.1-1.3,1.1h-2.6c-0.5,0-0.9,0-1.3-3.3c-0.4,3.3-0.8,3.3-1.3,3.3h-3.8
	C12.6,24.1,12.3,24.1,11.9,19.1z"/>
</svg>
