<?xml version="1.0" encoding="utf-8"?>
<!-- Generator: Adobe Illustrator 22.0.1, SVG Export Plug-In . SVG Version: 6.00 Build 0)  -->
<svg version="1.1" id="图层_1" xmlns="http://www.w3.org/2000/svg" xmlns:xlink="http://www.w3.org/1999/xlink" x="0px" y="0px"
	 viewBox="0 0 19.5 19.5" style="enable-background:new 0 0 19.5 19.5;" xml:space="preserve">
<style type="text/css">
	.st0{opacity:0.75;fill:#6D6D6D;fill-opacity:0.251;stroke:#545454;enable-background:new    ;}
	.st1{fill:#606060;}
</style>
<path class="st0" d="M2.8,0.8h14c1.1,0,2,0.9,2,2v14c0,1.1-0.9,2-2,2h-14c-1.1,0-2-0.9-2-2v-14C0.8,1.6,1.6,0.8,2.8,0.8z"/>
<path class="st1" d="M14.5,7.3l-5,6.6c-0.2,0.2-0.5,0.4-0.7,0.4c-0.3,0-0.5-0.1-0.7-0.4l-3-3.8C4.6,9.6,4.6,8.9,5,8.4s1-0.5,1.4,0
	l2.3,3L13,5.6c0.4-0.5,1-0.5,1.4,0C14.9,6.1,14.9,6.8,14.5,7.3z"/>
</svg>
