<?xml version="1.0" encoding="utf-8"?>
<!-- Generator: Adobe Illustrator 21.0.0, SVG Export Plug-In . SVG Version: 6.00 Build 0)  -->
<svg version="1.1" id="图层_1" xmlns="http://www.w3.org/2000/svg" xmlns:xlink="http://www.w3.org/1999/xlink" x="0px" y="0px"
	 viewBox="0 0 28 28" style="enable-background:new 0 0 28 28;" xml:space="preserve">
<style type="text/css">
	.st0{fill:#6EA9E2;}
	.st1{fill:url(#SVGID_1_);}
</style>
<path class="st0" d="M17.3,14l10.4,10.4c0.4,0.4,0.4,1.1,0,1.6L26,27.7c-0.4,0.4-1.1,0.4-1.6,0L14,17.3L3.6,27.7
	c-0.4,0.4-1.1,0.4-1.6,0l-1.7-1.7c-0.4-0.4-0.4-1.1,0-1.6L10.7,14L0.3,3.6c-0.4-0.4-0.4-1.1,0-1.6L2,0.3c0.4-0.4,1.1-0.4,1.6,0
	L14,10.7L24.4,0.3c0.4-0.4,1.1-0.4,1.6,0L27.7,2c0.4,0.4,0.4,1.1,0,1.6L17.3,14z"/>
<linearGradient id="SVGID_1_" gradientUnits="userSpaceOnUse" x1="-23.607" y1="53.1078" x2="-23.607" y2="54.1078" gradientTransform="matrix(27.9945 0 0 -28.02 674.8647 1516.077)">
	<stop  offset="0" style="stop-color:#FFFFFF;stop-opacity:0.251"/>
	<stop  offset="1" style="stop-color:#FFFFFF"/>
</linearGradient>
<path class="st1" d="M17.3,14l10.4,10.4c0.4,0.4,0.4,1.1,0,1.6L26,27.7c-0.4,0.4-1.1,0.4-1.6,0L14,17.3L3.6,27.7
	c-0.4,0.4-1.1,0.4-1.6,0l-1.7-1.7c-0.4-0.4-0.4-1.1,0-1.6L10.7,14L0.3,3.6c-0.4-0.4-0.4-1.1,0-1.6L2,0.3c0.4-0.4,1.1-0.4,1.6,0
	L14,10.7L24.4,0.3c0.4-0.4,1.1-0.4,1.6,0L27.7,2c0.4,0.4,0.4,1.1,0,1.6L17.3,14z"/>
</svg>
