<?xml version="1.0" encoding="utf-8"?>
<!-- Generator: Adobe Illustrator 21.0.0, SVG Export Plug-In . SVG Version: 6.00 Build 0)  -->
<svg version="1.1" id="图层_1" xmlns="http://www.w3.org/2000/svg" xmlns:xlink="http://www.w3.org/1999/xlink" x="0px" y="0px"
	 viewBox="0 0 50 50" style="enable-background:new 0 0 50 50;" xml:space="preserve">
<style type="text/css">
	.st0{fill:#FFE1CC;}
	.st1{fill:#FFEDE1;}
	.st2{fill:#DF6F28;}
	.st3{fill:#754C24;}
	.st4{fill:#FFB55E;}
	.st5{fill:#E6E6E6;}
</style>
<title>1</title>
<g id="_3.1">
	<path class="st0" d="M17.2,32.2c1.7-0.3,3.2-1.1,4.4-2.4c0.9-1.1,0.7-4.9,0.7-4.9h5.4c0,0-0.2,3.8,0.7,4.9c1.2,1.2,2.7,2.1,4.4,2.4
		c0,0,0.4,0.1-0.5,1.5c-0.4,0.7-3.9,1-7.3,1s-6.9-0.3-7.3-1C16.8,32.3,17.2,32.2,17.2,32.2z"/>
	<path class="st1" d="M16.3,17.4c0.4-0.1,0.8,0.1,1.1,0.4v-0.2c-0.1-4.7,1.7-9.6,7.5-9.7h0.2c5.9,0.1,7.6,5,7.5,9.7
		c0,0.1,0,0.1,0,0.2c0.3-0.3,0.7-0.5,1.1-0.4c1.1,0.3,0.6,4-1.7,4.6c-0.1,0.9-0.3,1.7-0.5,2.6c-1,1.4-2.2,2.7-3.6,3.6
		c-0.9,0.3-1.9,0.4-2.9,0.4c-1,0-1.9-0.1-2.9-0.4c-1.4-0.9-2.7-2.2-3.6-3.6c-0.2-0.8-0.4-1.7-0.5-2.5l0,0
		C15.6,21.4,15.3,17.7,16.3,17.4z"/>
	<path class="st2" d="M9.8,45c0.4-3.9,1.1-7.1,2.1-9c0.8-3.2,4.2-4.9,8.8-4.9c1.4,0.7,2.9,1.1,4.4,1.3c1.5-0.2,2.9-0.7,4.2-1.4
		c4.5,0,8.1,1.7,8.9,4.9c1,1.8,1.7,5,2.1,9L9.8,45z"/>
	<path class="st3" d="M17.7,21c0,0,0-0.2,0.3-4.5c0.4-6.4,4.4-2,7.3-2s6.2-4.5,6.9,2.1c0.4,3.8,0.3,3.4,0.3,3.4s3.3-15-7.4-15
		C13.6,5,17.7,21,17.7,21z"/>
	<path class="st4" d="M12.5,45v-0.8c1-0.5,1.7-1.4,2-2.5c0.4-1.4,0.5-2.9,0.3-4.4c-0.1-1.6-0.4-3.2-0.7-4.8c-0.1-0.5,0-0.9,0.7-1
		c1.5-0.4,3.1-0.8,4.6-1.1c0.9-0.2,1.1-0.1,1.3,0.7c0.4,1.6,0.9,3.2,1.6,4.8c0.3,0.8,1,1.5,1.9,1.6c1.4,0.4,2.9-0.3,3.5-1.7
		c0.6-1.5,1.1-3,1.5-4.5c0.3-1.1,0.5-1.2,1.7-0.9c1,0.2,1.9,0.5,2.9,0.7c2.3,0.6,2.3,0.3,1.9,2.5c-0.5,2.1-0.6,4.2-0.5,6.3
		c0.1,1.7,0.4,3.3,2.3,4.2V45H12.5z"/>
	<path class="st5" d="M35.3,41.2H14.7l-0.5,1.1h21.7L35.3,41.2z M35.3,39H14.7v1.1h20.6V39z"/>
</g>
</svg>
