<?xml version="1.0" encoding="utf-8"?>
<!-- Generator: Adobe Illustrator 22.1.0, SVG Export Plug-In . SVG Version: 6.00 Build 0)  -->
<svg version="1.2" baseProfile="tiny" id="Layer_1" xmlns="http://www.w3.org/2000/svg" xmlns:xlink="http://www.w3.org/1999/xlink"
	 x="0px" y="0px" viewBox="0 0 48 48" xml:space="preserve">
<g>
	<path fill="none" stroke="#000000" stroke-width="2" stroke-linejoin="round" stroke-miterlimit="10" d="M38,12.7
		c0,1-0.4,1.9-1,2.5s-1.5,1-2.5,1c-2,0-3.6-1.6-3.6-3.6c0-0.8,0.3-1.6,0.8-2.2c0.7-0.8,1.7-1.3,2.8-1.3C36.4,9.2,38,10.8,38,12.7z"
		/>
	
		<circle fill="none" stroke="#000000" stroke-width="2" stroke-linejoin="round" stroke-miterlimit="10" cx="13.5" cy="35.3" r="3.6"/>
	<circle fill="none" stroke="#000000" stroke-width="2" stroke-linejoin="round" stroke-miterlimit="10" cx="24" cy="24" r="23"/>
	<path fill="none" stroke="#000000" stroke-width="2" stroke-linejoin="round" stroke-miterlimit="10" d="M36.9,15.3
		c1.7,2.5,2.6,5.5,2.6,8.7c0,8.6-7,15.5-15.5,15.5c-2.9,0-5.6-0.8-8-2.2"/>
	<path fill="none" stroke="#000000" stroke-width="2" stroke-linejoin="round" stroke-miterlimit="10" d="M11.3,33
		c-1.8-2.5-2.9-5.6-2.9-9c0-8.6,7-15.5,15.5-15.5c3,0,5.8,0.8,8.1,2.3"/>
	<circle fill="none" stroke="#000000" stroke-width="2" stroke-linejoin="round" stroke-miterlimit="10" cx="24" cy="24" r="6.9"/>
	
		<line fill="none" stroke="#000000" stroke-width="2" stroke-linejoin="round" stroke-miterlimit="10" x1="1" y1="24" x2="47" y2="24"/>
	
		<line fill="none" stroke="#000000" stroke-width="2" stroke-linejoin="round" stroke-miterlimit="10" x1="24" y1="1" x2="24" y2="47"/>
</g>
</svg>
