<?xml version="1.0" encoding="utf-8"?>
<!-- Generator: Adobe Illustrator 22.1.0, SVG Export Plug-In . SVG Version: 6.00 Build 0)  -->
<svg version="1.2" baseProfile="tiny" id="Layer_1" xmlns="http://www.w3.org/2000/svg" xmlns:xlink="http://www.w3.org/1999/xlink"
	 x="0px" y="0px" viewBox="0 0 48 48" xml:space="preserve">
<g>
	<g>
		
			<line fill="none" stroke="#000000" stroke-width="2" stroke-linecap="round" stroke-linejoin="round" stroke-miterlimit="10" x1="30.3" y1="15.1" x2="30.3" y2="20.6"/>
		<path fill="none" stroke="#000000" stroke-width="2" stroke-linecap="round" stroke-linejoin="round" stroke-miterlimit="10" d="
			M17.7,4.7V2.5c0-0.8,0.7-1.5,1.5-1.5h9.6c0.8,0,1.5,0.7,1.5,1.5v2.4"/>
		
			<line fill="none" stroke="#000000" stroke-width="2" stroke-linecap="round" stroke-linejoin="round" stroke-miterlimit="10" x1="17.7" y1="20.9" x2="17.7" y2="15.4"/>
		<path fill="none" stroke="#000000" stroke-width="2" stroke-linecap="round" stroke-linejoin="round" stroke-miterlimit="10" d="
			M30.3,31.3v14.2c0,0.8-0.7,1.5-1.5,1.5h-9.6c-0.8,0-1.5-0.7-1.5-1.5V31.1"/>
	</g>
	<path fill="none" stroke="#000000" stroke-width="2" stroke-linecap="round" stroke-linejoin="round" stroke-miterlimit="10" d="
		M40.1,31.5L3,30.8c-0.8,0-1.5-0.7-1.5-1.5v-6.7c0-0.8,0.7-1.5,1.5-1.5l37.1-0.7c0.4,0,0.8,0.1,1.1,0.4l4.2,4c0.6,0.6,0.6,1.6,0,2.2
		l-4.2,4.1C40.9,31.3,40.5,31.5,40.1,31.5z"/>
	<path fill="none" stroke="#000000" stroke-width="2" stroke-linecap="round" stroke-linejoin="round" stroke-miterlimit="10" d="
		M7.9,15.5L45,14.9c0.8,0,1.5-0.7,1.5-1.5V6.7c0-0.8-0.7-1.5-1.5-1.5L7.9,4.5c-0.4,0-0.8,0.1-1.1,0.4l-4.2,4C2,9.5,2,10.5,2.6,11.1
		l4.2,4.1C7.1,15.4,7.5,15.6,7.9,15.5z"/>
</g>
</svg>
