<?xml version="1.0" encoding="utf-8"?>
<!-- Generator: Adobe Illustrator 21.0.0, SVG Export Plug-In . SVG Version: 6.00 Build 0)  -->
<svg version="1.1" id="图层_1" xmlns="http://www.w3.org/2000/svg" xmlns:xlink="http://www.w3.org/1999/xlink" x="0px" y="0px"
	 viewBox="0 0 20 20" style="enable-background:new 0 0 20 20;" xml:space="preserve">
<style type="text/css">
	.st0{fill:#BDDBFE;}
</style>
<path id="形状_2" class="st0" d="M8.8,0C8.6,0,8.4,0.2,8.4,0.4L7.9,3c-0.5,0.1-1,0.3-1.5,0.6L4.3,2c-0.2-0.1-0.4-0.1-0.6,0
	L2.1,3.8C1.9,3.9,1.9,4.1,2,4.3l1.5,2.2c-0.3,0.5-0.5,1-0.6,1.5L0.4,8.4C0.2,8.4,0,8.6,0,8.8v2.4c0,0.2,0.2,0.4,0.4,0.4l2.6,0.5
	c0.1,0.5,0.4,1,0.6,1.5L2,15.7c-0.1,0.2-0.1,0.4,0,0.6l1.7,1.7c0.1,0.1,0.4,0.2,0.6,0l2.2-1.5c0.5,0.3,0.9,0.5,1.5,0.6l0.4,2.6
	c0,0.2,0.2,0.4,0.4,0.4h2.4c0.2,0,0.4-0.2,0.4-0.4l0.5-2.6c0.5-0.1,1-0.4,1.4-0.6l2.2,1.5c0.2,0.1,0.4,0.1,0.6-0.1l1.7-1.7
	c0.2-0.2,0.2-0.4,0-0.6l-1.5-2.1c0.2-0.5,0.4-0.9,0.6-1.4l2.6-0.5c0.2,0,0.4-0.2,0.4-0.4V8.8c0-0.2-0.2-0.4-0.4-0.4L17,7.9
	c-0.1-0.5-0.3-1-0.6-1.4l1.5-2.2c0.1-0.2,0.1-0.4,0-0.6l-1.7-1.7c-0.2-0.2-0.4-0.2-0.6,0l-2.1,1.5C13,3.3,12.6,3.1,12.1,3l-0.5-2.6
	c0-0.2-0.2-0.4-0.4-0.4H8.8z M9.2,0.9h1.7l0.4,2.5c0,0.2,0.2,0.3,0.3,0.3c0.6,0.2,1.2,0.4,1.8,0.7c0.1,0.1,0.3,0.1,0.5,0l2-1.5
	L17,4.1l-1.4,2.1c-0.1,0.1-0.1,0.3,0,0.5c0.3,0.6,0.6,1.1,0.7,1.8c0,0.2,0.2,0.3,0.4,0.3l2.5,0.4v1.7l-2.5,0.4
	c-0.2,0-0.3,0.2-0.3,0.3c-0.2,0.6-0.4,1.2-0.7,1.8c-0.1,0.1-0.1,0.3,0,0.5l1.5,2L15.9,17l-2.1-1.4c-0.1-0.1-0.3-0.1-0.5,0
	c-0.6,0.3-1.1,0.6-1.8,0.7c-0.2,0-0.3,0.2-0.3,0.3l-0.4,2.5H9.2l-0.4-2.5c0-0.2-0.2-0.3-0.3-0.4c-0.6-0.2-1.2-0.4-1.8-0.7
	c-0.1-0.1-0.3-0.1-0.5,0l-2,1.4l-1.2-1.2l1.4-2c0.1-0.1,0.1-0.3,0-0.5c-0.3-0.6-0.6-1.2-0.7-1.8c0-0.2-0.2-0.3-0.3-0.3l-2.4-0.4V9.2
	l2.4-0.4c0.2,0,0.3-0.2,0.4-0.3c0.2-0.6,0.4-1.2,0.7-1.8c0.1-0.1,0.1-0.3,0-0.5L3,4.1l1.2-1.2l2,1.4c0.1,0.1,0.3,0.1,0.5,0
	c0.6-0.3,1.2-0.6,1.8-0.7c0.2,0,0.3-0.2,0.3-0.4L9.2,0.9z M10,6.5c-1.9,0-3.5,1.6-3.5,3.5s1.6,3.5,3.5,3.5s3.5-1.6,3.5-3.5
	C13.5,8.1,11.9,6.5,10,6.5z M10,7.4c1.4,0,2.6,1.2,2.6,2.6s-1.2,2.6-2.6,2.6S7.4,11.4,7.4,10c0,0,0,0,0,0C7.4,8.6,8.5,7.4,10,7.4
	C10,7.4,10,7.4,10,7.4L10,7.4z"/>
</svg>
