<?xml version="1.0" encoding="utf-8"?>
<!-- Generator: Adobe Illustrator 22.0.1, SVG Export Plug-In . SVG Version: 6.00 Build 0)  -->
<svg version="1.1" id="隔离模式" xmlns="http://www.w3.org/2000/svg" xmlns:xlink="http://www.w3.org/1999/xlink" x="0px"
	 y="0px" viewBox="0 0 600 600" style="enable-background:new 0 0 600 600;" xml:space="preserve">
<style type="text/css">
	.st0{fill:#56E168;}
	.st1{opacity:0.5;fill:#56E168;enable-background:new    ;}
	.st2{opacity:0.4;fill:#56E168;enable-background:new    ;}
	.st3{opacity:0.3;fill:#56E168;enable-background:new    ;}
	.st4{opacity:0.2;fill:#56E168;enable-background:new    ;}
	.st5{opacity:0.1;fill:#56E168;enable-background:new    ;}
	.st6{opacity:5.000000e-02;fill:#56E168;enable-background:new    ;}
	.st7{opacity:0.9;fill:#56E168;enable-background:new    ;}
	.st8{opacity:0.8;fill:#56E168;enable-background:new    ;}
	.st9{opacity:0.7;fill:#56E168;enable-background:new    ;}
	.st10{opacity:0.6;fill:#56E168;enable-background:new    ;}
	.st11{opacity:0.4;}
	.st12{opacity:0.5;}
	.st13{opacity:0.25;}
</style>
<path class="st0" d="M109.4,299.2c0-104.8,85.2-190,190-190s190,85.2,190,190s-85.2,190-190,190S109.4,404,109.4,299.2z
	 M117.4,299.2c0,100.4,81.6,182,182,182s182-81.6,182-182s-81.6-182-182-182C199.1,117.2,117.4,198.8,117.4,299.2z"/>
<path class="st1" d="M89.4,188.6c0,0,0.4-0.7,0.9-1.8s1.3-2.5,2.1-3.9s1.6-2.8,2.2-3.8c0.2-0.4,0.4-0.9,0.7-1.3
	c0.1-0.2,0.2-0.3,0.3-0.5l49,29.1l-0.2,0.4c-0.2,0.3-0.4,0.7-0.6,1c-0.4,0.8-1,1.9-1.6,2.9s-1.2,2.1-1.6,2.9
	c-0.2,0.5-0.4,0.9-0.7,1.4L89.4,188.6z"/>
<path class="st2" d="M79.6,209.6c0.2-0.7,0.4-1.3,0.7-1.9c0.5-1.1,1.2-2.5,1.8-4c1.2-2.9,2.6-5.8,2.6-5.8l51.6,24.2
	c0,0-1.1,2.1-2,4.4c-0.4,1.1-0.8,2.1-1.3,3.1c-0.2,0.5-0.4,0.9-0.6,1.4L79.6,209.6z"/>
<path class="st3" d="M72,231.5c0,0,0.9-3,1.9-6.1c0.4-1.4,0.9-2.8,1.4-4.2c0.4-1.1,0.7-1.9,0.7-1.9l53.7,19.1c0,0-0.2,0.5-0.5,1.4
	s-0.8,2-1.1,3.2c-0.8,2.4-1.5,4.7-1.5,4.7L72,231.5z"/>
<path class="st4" d="M66.4,254c0.1-0.7,0.2-1.3,0.4-2c0.3-1.2,0.5-2.7,0.9-4.3c0.8-3.1,1.5-6.2,1.5-6.2l55.3,13.8
	c0,0-0.5,2.3-1.1,4.7l-1,4.8L66.4,254z"/>
<path class="st5" d="M63,277.1c0,0,0.3-3.2,0.7-6.4c0.2-1.6,0.4-3.2,0.6-4.4s0.3-2,0.3-2l56.4,8.4c0,0-0.1,0.6-0.2,1.5
	s-0.2,2.1-0.4,3.3c-0.3,2.5-0.5,4.9-0.5,4.9L63,277.1z"/>
<path class="st6" d="M119,300.3H62.1c0,0,0-3.3,0.1-6.5v-2.5c0-0.7,0.1-1.4,0.1-2c0.1-1.2,0.1-2,0.1-2l56.9,3
	c-0.1,0.5-0.1,1-0.1,1.5s-0.1,1-0.1,1.6v1.9C119,297.7,119,300.3,119,300.3L119,300.3z"/>
<path class="st0" d="M185,90.2c0,0,0.6-0.4,1.7-1s2.5-1.4,3.9-2.1c2.9-1.4,5.7-2.9,5.7-2.9l25.2,51.1c0,0-2.1,1.1-4.3,2.2
	c-1,0.5-2,1-3,1.6c-0.8,0.4-1.3,0.7-1.3,0.7L185,90.2z"/>
<path class="st0" d="M165.3,102.5c0,0,2.6-1.9,5.3-3.6c1.4-0.9,2.7-1.8,3.7-2.4s1.7-1,1.7-1l30,48.4l-1.3,0.8
	c-0.8,0.5-1.8,1.1-2.8,1.8c-2,1.3-4,2.7-4,2.7L165.3,102.5z"/>
<path class="st7" d="M146.9,116.6c0.1-0.2,0.2-0.3,0.4-0.4c0.3-0.2,0.6-0.5,1.1-0.9c0.9-0.8,2.2-1.8,3.4-2.8c2.4-2,5-3.9,5-3.9
	l34.6,45.3c0,0-1.9,1.4-3.8,3c-0.9,0.8-1.9,1.5-2.6,2.1c-0.3,0.3-0.6,0.5-0.8,0.7l-0.3,0.3L146.9,116.6z"/>
<path class="st8" d="M130,132.5l4.5-4.5c1.1-1.1,2.3-2.1,3.2-3s1.5-1.4,1.5-1.4l38.7,41.8c0,0-0.5,0.4-1.1,1s-1.6,1.4-2.4,2.3
	c-1.8,1.7-3.5,3.4-3.5,3.4L130,132.5z"/>
<path class="st9" d="M114.7,149.8l4-5l4.2-4.8l42.6,37.9c0,0-1.6,1.8-3.2,3.7s-3.1,3.8-3.1,3.8L114.7,149.8z"/>
<path class="st10" d="M101,168.4c0,0,0.4-0.7,1.1-1.7l2.5-3.6c1.8-2.6,3.7-5.2,3.7-5.2l46,33.7l-2.8,4c-0.7,1-1.4,2-1.9,2.8
	s-0.8,1.3-0.8,1.3L101,168.4z"/>
<g class="st11">
	<path class="st0" d="M293.9,558.1c-15.8-0.3-31.5-2-47-5c-2.2-0.5-4.4-1-6.5-1.5c-1.1-0.2-2.2-0.5-3.2-0.7
		c-0.5-0.2-1.1-0.3-1.6-0.4c-1-0.2-1.9-0.4-2.9-0.7l-6.8-1.9c-1.8-0.5-3.4-0.9-5-1.4l-11.4-3.9c-1-0.4-1.8-0.7-2.6-1l-4.2-1.7
		l0.4-0.9l4.2,1.7c0.8,0.3,1.7,0.6,2.6,1l11.4,3.9c1.5,0.4,3.2,0.9,4.9,1.4l6.8,1.9c0.9,0.3,1.9,0.5,2.8,0.7
		c0.5,0.1,1.1,0.3,1.6,0.4c1.1,0.2,2.1,0.4,3.2,0.7c2.1,0.4,4.3,0.9,6.5,1.4c33.2,6.6,67.3,6.7,100.5,0.3s64.8-19.4,92.9-38.2
		c1.1-0.7,2.1-1.4,3.1-2.1c0.4-0.3,0.8-0.6,1.1-0.8l3.9-2.8c0.4-0.3,0.9-0.6,1.3-0.9c0.8-0.6,1.6-1.1,2.4-1.7l9.6-7.5l9.1-7.9l5.3-5
		l0.7,0.7l-5.3,5l-9.1,7.9l-9.6,7.6l-2.4,1.8c-0.4,0.3-0.9,0.6-1.3,0.9l-3.9,2.8c-0.4,0.2-0.8,0.4-1.1,0.7c-1,0.7-2,1.4-3.1,2.1
		c-13.1,8.8-27,16.3-41.5,22.5c-32.1,13.7-66.6,20.7-101.5,20.7C296.8,558.3,295.4,558.3,293.9,558.1z"/>
	<path class="st0" d="M277.2,545.2c-15.4-1.3-30.6-4.1-45.4-8.2c-13.9-3.9-27.4-9-40.4-15.2c-11.6-5.7-22.8-12.2-33.4-19.6l-7.2-5.1
		l-6.6-5.2c-0.3-0.3-0.7-0.6-1.1-0.9c-0.6-0.6-1.4-1.1-2-1.7l-3-2.6c-0.6-0.6-1.3-1.2-2-1.8c-1.2-1.1-2.4-2.1-3.6-3.2l-5.9-5.6
		c-1.4-1.2-2.7-2.5-3.9-3.9l-4.2-4.5c-1.3-1.4-2.6-2.7-3.7-4l-5.5-6.4l-7.5-9.4l-0.9-1.2l0.8-0.6c0,0,0.3,0.4,0.9,1.1l6.9,8.7
		l6.1,7.1c1.1,1.3,2.3,2.6,3.6,4l4.3,4.5c1.2,1.3,2.5,2.6,3.9,3.9l5.8,5.6c1.2,1.1,2.4,2.1,3.6,3.2c0.6,0.6,1.3,1.2,2,1.8l3,2.6
		c0.6,0.5,1.3,1.1,2,1.6c0.3,0.3,0.7,0.6,1.1,0.9l6.6,5.2l7.1,5.1c10.5,7.4,21.6,13.9,33.2,19.5c12.9,6.3,26.4,11.4,40.2,15.2
		c14.8,4.1,29.9,6.9,45.2,8.2c15.8,1.3,31.7,1.2,47.5-0.5c45.6-4.9,88.9-22.5,124.9-50.8l4-3.2c0.9-0.7,1.7-1.4,2.5-2.1
		c0.4-0.4,0.9-0.8,1.3-1.2l5.6-4.8l1.1-1.1l0.6-0.6l6.9-6.5l6.3-6.6c7.4-8,14.2-16.4,20.5-25.3l2.1-2.9c0.6-0.8,1.3-1.8,1.9-2.8
		l3.5-5.5c1.6-2.5,3-4.9,4.3-7.2c0.6-0.9,1.1-1.8,1.6-2.7c0.3-0.6,0.6-1.1,0.9-1.6c0.5-0.9,1.1-1.8,1.5-2.7l5.1-10l2.4-5.2l0.9,0.4
		l-2.4,5.2l-5.1,10c-0.4,1-0.9,1.9-1.5,2.8c-0.3,0.5-0.6,1.1-0.9,1.6c-0.6,0.9-1.1,1.8-1.6,2.7c-1.4,2.3-2.7,4.7-4.4,7.2l-3.5,5.5
		c-0.7,1-1.4,2-2,2.9l-2.1,2.9c-6.3,8.9-13.2,17.4-20.6,25.4l-6.3,6.6l-6.9,6.6l-0.6,0.6c-0.4,0.4-0.8,0.7-1.2,1.1l-5.6,4.9
		c-0.4,0.4-0.9,0.8-1.3,1.2c-0.8,0.7-1.6,1.4-2.5,2.1l-4,3.2c-11.3,8.9-23.4,16.8-36.1,23.6c-13.6,7.2-27.9,13.2-42.6,17.8
		c-15.2,4.7-30.9,7.9-46.7,9.6c-8.7,0.9-17.4,1.4-26.2,1.4C291.3,546.3,284.2,545.9,277.2,545.2z"/>
	<path class="st0" d="M383.7,536.5l8.3-3.2c0.4-0.2,0.9-0.4,1.4-0.6c1.4-0.6,3-1.2,4.7-2l7.5-3.4c1.1-0.5,2.2-1.1,3.4-1.7l5.2-2.7
		c0.5-0.2,1-0.5,1.6-0.8c1-0.5,2.1-1,3.1-1.6l4.9-2.8c0.6-0.3,1.2-0.7,1.8-1c1.2-0.7,2.3-1.3,3.4-2l5.2-3.4
		c16.2-10.5,31.2-22.8,44.6-36.7l5.5-5.8l5.3-6.1c0.3-0.4,0.6-0.7,0.9-1.1l1.7-2l2.6-3.2c0.6-0.8,1.2-1.5,1.8-2.3
		c1.1-1.4,2.2-2.9,3.3-4.3c0.8-1.1,1.7-2.3,2.5-3.5c2.4-3.3,4.8-6.7,7-10.3l2.3-3.6c0.7-1.1,1.5-2.3,2.2-3.6l4.2-7.3
		c5.4-9.8,10.2-20,14.2-30.5l1.5-3.9c0.3-0.8,0.6-1.7,0.9-2.5c0.2-0.5,0.3-0.9,0.5-1.4l2.6-7.8l1.5-5.1c0.3-0.9,0.5-1.8,0.8-2.7
		l1.1-3.9c0.2-0.8,0.4-1.7,0.6-2.5c0.1-0.5,0.2-0.9,0.3-1.4c4.5-18.8,6.9-38,7.1-57.3c0-13.7-0.9-27.3-2.9-40.8l-2-11.3
		c-0.1-0.9-0.3-1.6-0.4-2.2c-0.1-0.3-0.2-0.5-0.2-0.8l-0.2-1l1-0.2l0.2,1c0.1,0.3,0.1,0.5,0.2,0.8c0.2,0.7,0.4,1.5,0.5,2.2l2,11.3
		c2.1,13.5,3,27.2,2.9,40.9c-0.3,19.4-2.7,38.7-7.2,57.5c-0.1,0.5-0.2,0.9-0.3,1.4c-0.2,0.8-0.4,1.7-0.6,2.5l-1.1,3.9
		c-0.3,0.9-0.5,1.8-0.8,2.7l-1.5,5.1l-2.6,7.8c-0.2,0.5-0.3,0.9-0.5,1.4c-0.3,0.9-0.6,1.8-0.9,2.6l-1.5,3.9
		c-4,10.6-8.8,20.8-14.3,30.7l-4.2,7.3c-0.7,1.3-1.5,2.5-2.2,3.6l-2.3,3.6c-2.2,3.5-4.6,7-7,10.3c-0.8,1.1-1.7,2.3-2.5,3.5
		c-1.1,1.5-2.2,2.9-3.3,4.3c-0.6,0.8-1.2,1.5-1.8,2.3l-2.6,3.3c-0.5,0.7-1.1,1.3-1.7,2c-0.3,0.4-0.6,0.7-0.9,1.1l-5.3,6.2l-5.5,5.8
		c-13.4,14-28.5,26.3-44.8,36.8l-5.3,3.4c-1.1,0.7-2.3,1.4-3.4,2c-0.6,0.3-1.2,0.7-1.8,1l-4.9,2.8c-1,0.6-2,1.2-3.1,1.7
		c-0.6,0.2-1.1,0.5-1.6,0.8l-5.2,2.7c-1.2,0.6-2.4,1.2-3.5,1.7l-7.5,3.4c-1.7,0.8-3.3,1.4-4.7,2c-0.5,0.2-0.9,0.4-1.4,0.6l-7.4,2.9
		l-1,0.3L383.7,536.5z"/>
</g>
<g class="st12">
	<path class="st0" d="M491.1,438.1l2.8-3.9c0.7-1,1.5-2.2,2.4-3.6l0.8-1.2c0.4-0.7,0.9-1.4,1.4-2.2c0.9-1.4,1.8-2.8,2.8-4.4l4.9-8.4
		l5.3-10.2c0.5-1,1-2,1.3-2.8l4.1-9l3.9-10c0.3-0.7,0.5-1.4,0.8-2.2c0.1-0.5,0.3-0.9,0.4-1.3l2.5-7.3c0.5-1.6,0.9-3.2,1.4-4.9
		c0.3-0.9,0.5-1.9,0.8-2.8l1.1-3.9c0.2-0.9,0.4-1.7,0.6-2.6l0.3-1.5l1.9-8.3c2.3-11.9,3.8-23.8,4.5-35.9c0.6-12.9,0.1-25.9-1.3-38.7
		c-1.5-13.2-4.1-26.3-7.9-39.1c-3.7-12.8-8.5-25.3-14.3-37.3c-5.6-11.6-12.2-22.8-19.7-33.3c-3.1-4.6-6.6-8.9-9.9-13.1l-1.3-1.6
		l-5.9-6.8c-0.8-0.9-1.7-1.8-2.5-2.7l-6.4-6.7l-3.1-2.9c-0.8-0.7-1.5-1.4-2.2-2.1c-1.3-1.3-2.5-2.5-3.8-3.6l-2.6-2.3
		c-3.2-2.8-6.2-5.4-9.4-7.8c-12.7-10-26.5-18.7-41-26c-2.2-1.2-4.3-2.2-6.1-3l-6.2-2.8c-0.9-0.4-1.7-0.7-2.4-1
		c-0.3-0.1-0.6-0.2-0.9-0.3l-1.1-0.5l0.4-0.9l1.2,0.5l0.9,0.3c0.9,0.3,1.7,0.6,2.5,1l6.2,2.8c1.9,0.9,4,1.8,6.2,3
		c14.6,7.3,28.3,16,41.1,26.1c3.1,2.4,6.2,5,9.4,7.8c0.8,0.8,1.7,1.5,2.6,2.3c1.3,1.1,2.6,2.4,3.9,3.6c0.7,0.7,1.5,1.4,2.2,2.1
		l3.1,2.9l6.4,6.7c0.8,0.9,1.7,1.8,2.5,2.8l5.9,6.8l1.3,1.7c3.3,4.2,6.8,8.5,9.9,13.1c7.5,10.6,14.1,21.7,19.8,33.4
		c5.8,12.1,10.5,24.6,14.3,37.4c3.8,12.8,6.5,26,7.9,39.3c1.4,12.9,1.9,25.9,1.3,38.9c-0.7,12.1-2.2,24.2-4.5,36.1l-1.9,8.3
		l-0.3,1.5c-0.2,0.8-0.4,1.7-0.6,2.6l-1.1,4c-0.3,0.9-0.5,1.9-0.8,2.8c-0.4,1.6-0.9,3.3-1.4,4.9l-2.5,7.3c-0.1,0.5-0.3,0.9-0.4,1.3
		c-0.2,0.8-0.5,1.6-0.8,2.3l-3.9,10l-4.1,9l-1.4,2.8l-4,7.8l-6.2,10.9c-1,1.6-1.9,3-2.8,4.4c-0.5,0.8-1,1.5-1.4,2.2l-0.8,1.2
		l-2.4,3.6l-2.8,3.9L491.1,438.1z"/>
	<path class="st0" d="M228.3,527.6c-0.7-0.1-1.3-0.3-2-0.6l-9.2-3.1l-0.6-0.2c-10.6-3.8-20.9-8.5-30.9-13.8
		c-14.3-7.7-27.8-16.8-40.3-27.3c-28.7-24.1-51.4-54.5-66.1-89c-6.5-14.9-11.3-30.5-14.5-46.5c-2.2-11.3-3.6-22.7-4.3-34.2
		c-0.1-2.7-0.2-5-0.2-6.9c-0.1-0.9-0.1-1.8-0.1-2.7l-0.1-3.4h1l0.1,3.4c0.1,0.9,0.1,1.8,0.1,2.7c0,1.9,0.1,4.2,0.2,6.9
		c0.6,11.5,2.1,22.8,4.3,34.1c3.2,15.9,8,31.4,14.4,46.3c7.3,17.1,16.6,33.3,27.7,48.2s24,28.4,38.2,40.4
		c12.4,10.4,25.9,19.6,40.2,27.2c9.9,5.3,20.2,9.9,30.8,13.8l9.7,3.3c0.7,0.3,1.3,0.5,2,0.6l1.3,0.4l-0.3,1L228.3,527.6z"/>
	<path class="st0" d="M341.7,528.4l2.1-0.4c1.2-0.2,2.5-0.5,3.7-0.8c0.7-0.2,1.3-0.3,2.1-0.5c7-1.5,13.8-3.4,20.6-5.6l7.2-2.4
		c0.4-0.2,0.7-0.3,1.1-0.4l9.4-3.7c0.4-0.2,0.8-0.3,1.2-0.5l9.2-4.2c10.4-5,20.4-10.7,30-17.1c9.5-6.5,18.6-13.6,27.1-21.4l6.7-6.4
		l4.6-4.8c2.7-2.8,5.2-5.6,7.5-8.3l2-2.3c1-1.2,2-2.4,2.9-3.6l1-1.3l3.5-4.5c0.5-0.6,0.9-1.3,1.5-2.1l3.9-5.5
		c0.3-0.4,0.5-0.7,0.8-1.1c0.4-0.5,0.8-1.1,1.2-1.7l2.5-3.9l0.8,0.5l-2.5,3.9c-0.3,0.5-0.8,1.1-1.2,1.7c-0.3,0.3-0.6,0.7-0.8,1.1
		l-3.9,5.5c-0.6,0.8-1.1,1.5-1.6,2.1l-3.5,4.5l-1,1.3c-0.9,1.2-1.9,2.4-3,3.6c-0.7,0.7-1.3,1.5-2,2.3c-2.4,2.7-4.8,5.5-7.6,8.3
		l-4,4.2l-7.3,7c-8.6,7.8-17.6,15-27.2,21.5c-9.7,6.4-19.8,12.2-30.2,17.2l-9.2,4.2c-0.4,0.2-0.8,0.3-1.2,0.5l-9.4,3.7
		c-0.3,0.2-0.7,0.3-1.1,0.4l-7.2,2.4c-9.8,3.2-17.2,4.9-20.7,5.7c-0.8,0.2-1.5,0.3-2.1,0.5c-1.2,0.4-2.5,0.6-3.8,0.8l-2.1,0.4V528.4
		z"/>
</g>
<path class="st3" d="M533.7,406l2.4-5.3c0.3-0.7,0.6-1.6,1-2.5c0.2-0.5,0.4-1.1,0.6-1.6l2.5-6.3c0.3-0.6,0.6-1.3,0.8-2l3.6-10.8
	c0.6-1.8,1.1-3.6,1.6-5.5c0.3-1,0.6-2.1,0.9-3.1c15.6-56.2,11.6-116-11.1-169.7c-5-11.6-10.8-22.8-17.4-33.6
	c-6.9-11.3-14.6-22-23.2-32l-3.3-3.8c-0.4-0.3-0.7-0.7-1-1.1c-0.8-0.8-1.6-1.8-2.4-2.6l-7-7.4c-1.6-1.6-3.2-3.1-4.9-4.7
	c-0.8-0.8-1.7-1.6-2.5-2.4l-1.9-1.8l-5.9-5.1c-21.4-18.4-45.7-33.1-72-43.5c-13.3-5.4-27-9.6-41-12.5c-14-3-28.2-4.8-42.5-5.5
	l-10.7-0.3c-2.3,0-4.7,0-7,0.1c-1.2,0-2.4,0.1-3.6,0.1c-2.6,0-5.3,0.2-7.9,0.4c-0.9,0.1-1.8,0.1-2.7,0.2l-5.3,0.4
	c-1.1,0.1-2.3,0.3-3.4,0.4c-0.6,0-1.2,0.1-1.8,0.2l-7.9,1L259,46c-0.3,0.1-0.6,0.1-0.9,0.2L247.8,48l-12.7,2.9l-7.5,2.1
	c-0.5,0.2-1.1,0.3-1.7,0.5l-3.2,0.9l-4.9,1.7c-0.8,0.3-1.7,0.6-2.6,0.9c-2.3,0.8-4.7,1.6-7,2.6c-1,0.5-2.1,0.9-3.2,1.3
	c-2,0.8-4.2,1.6-6.2,2.5l-9.2,4.2c-11.9,5.7-23.3,12.3-34.3,19.7c-10.4,7.1-20.3,15-29.6,23.5l-6.7,6.3c-0.8,0.7-1.6,1.6-2.4,2.4
	l-6.9,7.3l-1.9,2.2c-0.3,0.4-0.7,0.8-1,1.2l-1.9,2.2c-1.3,1.5-2.6,2.9-3.8,4.4c-1,1.3-2,2.5-3,3.8c-2.6,3.3-5.1,6.5-7.4,9.8
	c-0.6,0.8-1.1,1.6-1.7,2.4c-1.1,1.4-2.1,2.9-3.1,4.4l-4.4,6.9c-1.3,2-2.5,4.1-3.7,6.2l-4.2,7.4l-3.8,7.4c-1,2-2,4-2.9,6
	c-0.5,1.1-1,2.1-1.5,3.2c-1.5,3.4-3,6.6-4.2,9.9l-2.5,6.4c-0.5,1.4-1,2.8-1.4,4.1c-0.2,0.7-0.4,1.5-0.7,2.2
	c-4.8,14.3-8.5,29-10.8,43.9c-1.4,9.6-2.3,19.3-2.7,29l-0.3,10.3h-1l0.3-10.3c0.4-9.7,1.3-19.5,2.7-29.1c2.4-14.9,6-29.7,10.9-44
	c0.2-0.7,0.5-1.5,0.7-2.2c0.5-1.3,1-2.7,1.5-4.1l2.5-6.4c1.3-3.3,2.7-6.6,4.3-10c0.4-1.1,0.9-2.1,1.4-3.2c0.9-2.1,2-4.1,3-6.1
	l3.8-7.5l4.2-7.4c1.2-2,2.4-4.2,3.8-6.2l4.4-6.9c1-1.5,2.1-3,3.1-4.5c0.6-0.8,1.1-1.6,1.7-2.4c2.3-3.3,4.9-6.6,7.4-9.8
	c1-1.3,2-2.5,3-3.8c1.2-1.5,2.5-3,3.8-4.5l1.9-2.2c0.3-0.4,0.7-0.8,1-1.2c0.6-0.7,1.2-1.5,1.9-2.2l7-7.3c0.8-0.9,1.6-1.7,2.5-2.5
	l6.7-6.3c9.4-8.5,19.3-16.4,29.8-23.6c11-7.4,22.5-14,34.5-19.7l9.3-4.2c2.1-0.9,4.2-1.7,6.3-2.5c1-0.4,2.1-0.9,3.2-1.3
	c2.3-1,4.7-1.8,7.1-2.6c0.8-0.3,1.7-0.6,2.6-0.9l4.9-1.7c1.1-0.4,2.2-0.7,3.3-1c0.5-0.2,1.1-0.3,1.7-0.5l7.5-2.1l12.8-3l10.4-1.9
	c0.3-0.1,0.6-0.1,0.9-0.2l1.7-0.3l7.9-1c0.6,0,1.2-0.1,1.8-0.2c1.2-0.1,2.3-0.3,3.5-0.4l5.3-0.4c0.9-0.1,1.8-0.1,2.7-0.2
	c2.6-0.2,5.3-0.4,8-0.4c1.2,0,2.4-0.1,3.6-0.1c2.3,0,4.7-0.1,7.1-0.1l10.7,0.3c14.4,0.7,28.6,2.6,42.7,5.5
	c14.1,3,27.8,7.2,41.2,12.6c13.3,5.3,26.1,11.7,38.3,19c12,7.3,23.3,15.6,34,24.7l5.9,5.1l1.9,1.8c0.8,0.8,1.7,1.6,2.5,2.4
	c1.7,1.6,3.4,3.2,5,4.8l7,7.4l2.4,2.7c0.4,0.3,0.7,0.7,1,1.1l3.3,3.8c32.1,37.7,52.6,83.8,59.1,132.9c2.5,19.5,2.9,39.2,1.1,58.7
	c-1.4,15.1-4.2,30-8.2,44.6c-0.3,1.1-0.6,2.1-0.9,3.1c-0.5,1.9-1,3.7-1.6,5.5l-3.7,10.8c-0.3,0.7-0.5,1.3-0.8,2l-2.5,6.3
	c-0.2,0.6-0.4,1.1-0.6,1.6c-0.3,1-0.7,1.8-1,2.6l-2.4,5.4L533.7,406z"/>
<path class="st0" d="M208.6,117.5c0,0-1,0.6-3,1.6c-1,0.5-2.3,1.1-3.7,1.9s-3.1,1.7-5,2.8c-10.9,6.2-21.1,13.5-30.6,21.6
	c-14.8,12.6-27.8,27.4-38.4,43.7c-6.5,10-12.1,20.6-16.8,31.6c-2.4,5.8-4.8,11.9-6.7,18.2c-1.1,3.2-1.9,6.4-2.8,9.7
	c-0.4,1.7-0.8,3.3-1.2,5c-0.2,0.8-0.4,1.7-0.6,2.5c-0.2,0.8-0.3,1.7-0.5,2.5c-1.5,6.9-2.6,13.9-3.2,21c-0.7,7.3-1.1,14.7-1,22
	c0.1,7.6,0.6,15.2,1.5,22.8c0.2,1.9,0.4,3.8,0.7,5.8s0.6,3.9,1,5.8s0.7,3.9,1.1,5.8s0.9,3.9,1.3,5.8c3.8,15.9,9.6,31.2,17.1,45.7
	c11.9,23,28,43.5,47.6,60.4c3.3,3,6.8,5.6,10.3,8.4c1.7,1.4,3.6,2.6,5.4,3.9s3.7,2.6,5.5,3.8s3.7,2.4,5.6,3.6s3.9,2.3,5.8,3.4
	l2.9,1.7c1,0.6,2,1.1,3,1.6c2,1,3.9,2.2,6,3.1s4.1,1.9,6.2,2.8c1,0.5,2.1,1,3.1,1.4l3.2,1.3c2.1,0.8,4.1,1.8,6.3,2.5
	s4.4,1.4,6.5,2.2s4.3,1.4,6.5,2s4.4,1.3,6.6,1.8c4.4,1,8.9,2.2,13.4,2.9c9.1,1.6,18.2,2.7,27.4,3.1c18.5,0.9,37.1-0.8,55.1-5
	c4.5-0.9,8.9-2.3,13.4-3.5c2.2-0.7,4.4-1.5,6.6-2.2l3.3-1.1c1.1-0.3,2.1-0.8,3.2-1.2l6.5-2.5l6.3-2.8c1.1-0.4,2.2-0.9,3.2-1.4
	l3.1-1.6c2-1.1,4.1-2.1,6.1-3.2c4-2.3,8.1-4.5,11.9-7.1c4-2.4,7.6-5.2,11.4-7.8c1.8-1.3,3.6-2.8,5.4-4.2l2.7-2.1
	c0.9-0.7,1.7-1.5,2.6-2.2l5.2-4.5l5-4.7c25.8-25,44.5-56.4,54.2-91c4.6-16.4,7.2-33.4,7.5-50.5c0.2-4.2,0-8.4-0.1-12.5
	c0-2.1-0.1-4.2-0.3-6.2s-0.3-4-0.5-6.1s-0.5-4.1-0.7-6.1l-0.4-3l-0.2-1.5l-0.3-1.5c-0.4-1.9-0.7-3.9-1.1-5.9c-0.1-1-0.3-2-0.5-3
	l-0.7-2.9c-6.5-29.4-19.4-56.9-37.9-80.6c-15.6-20.1-34.7-37.1-56.5-50.2l-7.2-4.2c-2.5-1.3-4.8-2.5-7.2-3.7l-1.8-0.9
	c-0.6-0.3-1.2-0.5-1.8-0.8c-1.2-0.5-2.4-1-3.5-1.6s-2.3-1.1-3.4-1.6s-2.3-0.9-3.4-1.4c-8.3-3.3-16.8-6.1-25.5-8.4
	c-2-0.4-3.9-0.8-5.8-1.3s-3.7-0.9-5.5-1.2s-3.6-0.6-5.2-0.9s-3.2-0.6-4.8-0.8c-3.2-0.4-6-0.9-8.7-1.1s-5.1-0.4-7.3-0.6
	c-1.1-0.1-2.1-0.1-3.1-0.2c-0.9-0.1-1.8-0.1-2.7-0.1c-1.7,0-3.1-0.1-4.2-0.1c-2.2-0.1-3.4-0.1-3.4-0.1s1.2,0,3.4,0.1
	c1.1,0,2.5,0.1,4.2,0.1c0.9,0.1,1.8,0.1,2.7,0.1c1,0,2,0.1,3.1,0.2c2.2,0.1,4.6,0.2,7.3,0.5c2.7,0.3,5.6,0.7,8.7,1.1
	c1.5,0.2,3.1,0.5,4.8,0.8c1.7,0.3,3.4,0.6,5.2,0.9s3.6,0.8,5.5,1.2s3.8,0.8,5.8,1.3c8.7,2.3,17.3,5.1,25.6,8.4
	c1.2,0.5,2.3,0.8,3.5,1.4s2.4,1.1,3.5,1.6s2.3,1.1,3.5,1.6c0.6,0.3,1.2,0.5,1.8,0.8l1.8,0.9c2.4,1.2,4.8,2.5,7.2,3.7
	c2.3,1.4,4.7,2.8,7.2,4.2c48.2,28.7,82.5,76,94.8,130.8l0.7,2.9c0.3,1,0.4,2,0.6,3c0.4,2,0.7,4,1.1,6l0.3,1.5l0.2,1.5l0.4,3
	c0.3,2,0.6,4.1,0.8,6.1c0.8,8.3,1.1,16.6,0.9,24.9c-0.3,17.1-2.8,34.2-7.4,50.7c-9.1,33.6-28,65.8-54.2,91.4l-5,4.7l-5.2,4.5
	c-0.9,0.7-1.7,1.5-2.6,2.2l-2.7,2.1c-1.9,1.4-3.6,2.8-5.5,4.2c-3.7,2.6-7.6,5.3-11.4,7.8s-7.9,4.8-11.9,7.1
	c-2.1,1.1-4.1,2.1-6.2,3.2l-3.1,1.6c-1.1,0.6-2.1,1-3.2,1.5l-6.3,2.9l-6.5,2.6c-1.1,0.5-2.2,0.9-3.3,1.3l-3.3,1.1
	c-2.2,0.7-4.4,1.5-6.6,2.2c-4.5,1.3-8.9,2.6-13.5,3.6l-3.4,0.8l-1.7,0.4l-1.7,0.3l-6.9,1.2c-1.1,0.2-2.2,0.4-3.4,0.5l-3.5,0.4
	c-2.3,0.3-4.6,0.7-6.9,0.8l-7,0.5c-1.2,0.2-2.3,0.2-3.5,0.2l-3.5,0.1c-4.6,0.2-9.3,0-13.9-0.1c-9.3-0.4-18.5-1.5-27.6-3.1
	c-4.5-0.7-9-1.9-13.5-2.9c-2.2-0.5-4.4-1.2-6.6-1.8s-4.4-1.3-6.6-2s-4.3-1.4-6.5-2.2s-4.3-1.7-6.4-2.5l-3.2-1.3
	c-1-0.5-2.1-0.9-3.1-1.4c-2.1-0.9-4.1-1.8-6.2-2.8s-4.1-2.1-6.1-3.1c-1-0.6-2-1.1-3-1.6l-2.9-1.7c-2-1.1-4-2.2-5.9-3.4l-5.7-3.6
	c-2-1.2-3.8-2.5-5.6-3.8s-3.6-2.5-5.4-3.9c-3.5-2.8-7.1-5.4-10.4-8.4c-6.7-5.8-13-12-18.9-18.5c-11.5-12.8-21.3-27-29.2-42.2
	c-7.7-14.6-13.5-30-17.3-46c-7-29.4-7.6-60-1.6-89.6c0.2-0.9,0.3-1.8,0.5-2.6c0.2-0.8,0.4-1.7,0.6-2.5c0.4-1.7,0.8-3.3,1.2-5
	c0.9-3.3,1.7-6.6,2.8-9.8c1.9-6.4,4.3-12.5,6.7-18.4c4.7-11.1,10.3-21.8,16.9-31.9c10.7-16.5,23.7-31.4,38.6-44.2
	c9.6-8.2,20-15.5,30.9-21.9c2-1,3.6-2,5.1-2.8s2.7-1.4,3.7-1.9c2-1.1,3-1.6,3-1.6L208.6,117.5z"/>
<path class="st0" d="M232.4,161.8c0,0-0.8,0.4-2.3,1.2c-1,0.4-2,0.9-2.9,1.4c-1.1,0.5-2.4,1.2-3.8,2c-8.2,4.6-16,10-23.3,16.1
	c-11.3,9.4-21.2,20.4-29.3,32.7c-10.6,15.9-18.1,33.7-22.1,52.4c-1.2,5.2-2,10.6-2.6,15.9c-0.1,1.4-0.2,2.8-0.4,4.1
	c-0.2,1.3-0.2,2.7-0.3,4.1l-0.1,2.1v6.3c0,1.4,0,2.9,0.1,4.3s0.1,2.9,0.2,4.3c0.1,1.4,0.2,2.9,0.3,4.3l0.2,2.2l0.3,2.2
	c0.3,2.9,0.7,5.8,1.2,8.7c0.3,1.5,0.5,2.9,0.8,4.4s0.7,2.9,1,4.4c0.6,3,1.5,5.9,2.3,8.8c0.4,1.5,0.9,2.9,1.4,4.4s1,2.9,1.5,4.4
	c2.2,5.9,4.7,11.6,7.5,17.2c2.9,5.7,6.1,11.2,9.7,16.5c1.9,2.7,3.6,5.4,5.7,7.9c1,1.3,1.9,2.7,3,3.9s2.2,2.4,3.2,3.7
	s2.2,2.5,3.3,3.7s2.2,2.4,3.4,3.6c2.4,2.3,4.7,4.7,7.3,6.8c5,4.5,10.4,8.6,16,12.3c1.4,1,2.9,1.9,4.3,2.8s2.9,1.7,4.4,2.6
	c2.9,1.8,6,3.3,9,4.9c1.6,0.8,3.1,1.5,4.7,2.2l2.3,1.1c0.8,0.4,1.6,0.7,2.4,1c1.6,0.6,3.2,1.3,4.8,1.9s3.3,1.1,4.9,1.7l2.5,0.8
	l2.5,0.7l5,1.4l5.1,1.2c0.8,0.2,1.6,0.4,2.5,0.6l2.6,0.5c6.9,1.3,13.8,2.1,20.8,2.5l5.3,0.2c0.9,0.1,1.7,0.1,2.6,0.1l2.7-0.1
	c1.7,0,3.5,0,5.3-0.1l5.2-0.4c1.7-0.1,3.5-0.2,5.2-0.5s3.5-0.4,5.2-0.7c3.5-0.6,7-1.1,10.4-2c13.8-3.1,27.1-8,39.5-14.7
	c3.1-1.8,6.2-3.5,9.1-5.4c1.5-1,3-1.9,4.4-2.9l4.3-3c1.5-1,2.8-2.1,4.2-3.2s2.8-2.1,4.1-3.3l4-3.4c1.3-1.2,2.5-2.4,3.8-3.6
	c19.8-19,34.2-42.8,41.7-69.2c1-3.2,1.6-6.4,2.4-9.6c0.4-1.6,0.7-3.2,0.9-4.8c0.2-1.6,0.6-3.2,0.8-4.8l0.6-4.8l0.3-2.4l0.2-2.4
	c0.1-1.6,0.3-3.2,0.4-4.8s0.1-3.2,0.2-4.8l0.1-2.4v-2.4c0-1.6-0.1-3.2-0.1-4.8c-0.1-0.8-0.1-1.6-0.1-2.4l-0.2-2.3
	c-0.1-1.6-0.2-3.2-0.3-4.7s-0.3-3.1-0.5-4.6s-0.3-3.1-0.6-4.6s-0.5-3-0.8-4.5l-0.4-2.3l-0.5-2.2c-12.4-57.6-56.3-103.2-113.3-117.9
	c-1.5-0.3-3-0.7-4.4-1s-2.8-0.7-4.2-0.9s-2.7-0.5-4-0.7s-2.5-0.5-3.7-0.6c-2.4-0.3-4.7-0.6-6.7-0.9c-2.1-0.1-3.9-0.3-5.6-0.4
	c-0.9-0.1-1.7-0.1-2.4-0.2s-1.4-0.1-2.1-0.1c-1.3,0-2.3-0.1-3.2-0.1c-1.7-0.1-2.6-0.1-2.6-0.1s0.9,0.1,2.6,0.1
	c0.9,0,1.9,0.1,3.2,0.1h2.1c0.8,0.1,1.6,0.1,2.4,0.2c1.7,0.1,3.5,0.2,5.6,0.4s4.3,0.5,6.7,0.8c1.2,0.1,2.4,0.4,3.7,0.6
	s2.6,0.5,4,0.7s2.8,0.6,4.2,0.9c1.4,0.3,2.9,0.7,4.4,1c14.6,3.7,28.5,9.5,41.5,17.1c16.8,9.9,31.7,23,43.7,38.4
	c6.9,8.8,12.8,18.3,17.7,28.4c5.2,10.8,9.2,22.1,11.8,33.8l0.5,2.3l0.4,2.3c0.2,1.5,0.5,3,0.8,4.6s0.5,3.1,0.7,4.7s0.5,3.1,0.6,4.7
	s0.3,3.2,0.4,4.8l0.2,2.4c0.1,0.8,0.1,1.6,0.1,2.4c0,1.6,0.1,3.2,0.1,4.8v2.4l-0.1,2.4c0.1,1.6,0,3.3-0.1,4.9
	c-0.2,1.6-0.3,3.3-0.4,4.9l-0.2,2.5l-0.3,2.4c-0.2,1.6-0.4,3.3-0.6,4.9s-0.5,3.3-0.8,4.9s-0.5,3.3-0.9,4.9c-0.8,3.3-1.4,6.6-2.4,9.8
	c-7.5,26.9-21.9,51.2-41.9,70.7c-1.2,1.2-2.5,2.5-3.8,3.7l-4,3.5c-1.3,1.2-2.7,2.3-4.1,3.4s-2.7,2.3-4.2,3.3l-4.4,3.1
	c-1.5,1.1-3,2-4.5,3c-3,2-6.1,3.7-9.2,5.5c-12.6,7-26.2,12.2-40.2,15.4c-3.5,0.9-7.1,1.4-10.6,2.1c-1.8,0.3-3.6,0.5-5.4,0.7
	s-3.6,0.5-5.4,0.6l-5.4,0.4c-1.8,0.1-3.5,0.1-5.3,0.2l-2.7,0.1c-0.9,0-1.8,0-2.7,0l-5.4-0.1c-7.2-0.3-14.3-1.1-21.4-2.4l-2.6-0.5
	l-2.6-0.6l-5.2-1.2l-5.2-1.4l-2.6-0.7l-2.5-0.8c-1.7-0.6-3.4-1.1-5.1-1.7s-3.3-1.3-5-1.9c-0.9-0.3-1.7-0.6-2.5-1l-2.4-1.1
	c-1.6-0.7-3.2-1.4-4.8-2.2c-3.1-1.6-6.3-3.1-9.3-4.9l-4.5-2.7c-1.5-0.9-2.9-1.9-4.4-2.8c-5.8-3.8-11.4-8-16.6-12.6
	c-2.7-2.2-5.1-4.7-7.6-7c-1.3-1.2-2.4-2.5-3.6-3.7s-2.4-2.4-3.5-3.7s-2.2-2.6-3.3-3.8s-2.1-2.6-3.2-3.9c-2.2-2.6-4-5.4-6-8.1
	c-3.8-5.4-7.2-11.1-10.2-17c-3-5.7-5.6-11.6-7.9-17.7c-0.6-1.5-1.1-3-1.6-4.5s-1.1-3-1.5-4.5c-0.9-3.1-1.9-6-2.5-9.1
	c-0.4-1.5-0.7-3-1.1-4.5c-0.2-1.6-0.5-3.1-0.8-4.6c-0.7-3.1-1-6.1-1.4-9.1l-0.3-2.2l-0.2-2.3c-0.2-1.5-0.2-3-0.4-4.5
	s-0.2-2.9-0.2-4.4c0-1.4-0.1-2.9-0.1-4.3v-6.6l0.1-2.2c0-1.4,0-2.9,0.2-4.3c0.2-1.5,0.3-2.9,0.4-4.3c0.6-5.7,1.4-11.2,2.5-16.5
	c7.2-34.8,25.9-66.1,52.9-89.1c7.6-6.4,15.7-12.1,24.2-17c1.5-0.8,2.8-1.6,4-2.2s2.1-1.1,2.9-1.5c1.5-0.8,2.3-1.2,2.3-1.2
	L232.4,161.8z"/>
<g class="st13">
	<rect x="298.4" y="43.3" class="st0" width="2" height="102"/>
	<rect x="298.4" y="426.3" class="st0" width="2" height="131"/>
	<rect x="9.5" y="300.3" class="st0" width="131" height="2"/>
	<rect x="469.5" y="300.3" class="st0" width="131" height="2"/>
</g>
</svg>
