<?xml version="1.0" encoding="utf-8"?>
<!-- Generator: Adobe Illustrator 21.0.0, SVG Export Plug-In . SVG Version: 6.00 Build 0)  -->
<svg version="1.1" id="图层_1" xmlns="http://www.w3.org/2000/svg" xmlns:xlink="http://www.w3.org/1999/xlink" x="0px" y="0px"
	 viewBox="0 0 47 47" style="enable-background:new 0 0 47 47;" xml:space="preserve">
<style type="text/css">
	.st0{fill:#AAD0FF;}
</style>
<path class="st0" d="M5.6,0C2.5,0,0,2.5,0,5.6s2.5,5.6,5.6,5.6c1.2,0,2.3-0.4,3.3-1.1l7.3,7.3c-1.3,1.6-2.1,3.7-2.1,5.9
	c0,1.9,0.6,3.6,1.5,5.1l-6.2,4.9c-1-0.9-2.3-1.5-3.8-1.5C2.5,32,0,34.5,0,37.6c0,3.1,2.5,5.6,5.6,5.6s5.6-2.5,5.6-5.6
	c0-1-0.2-1.9-0.7-2.7l6.2-4.9c1.7,1.8,4.1,2.9,6.7,2.9c1.2,0,2.4-0.2,3.5-0.7l2.5,4.7c-1.3,1-2.2,2.6-2.2,4.5c0,3.1,2.5,5.6,5.6,5.6
	c3.1,0,5.6-2.5,5.6-5.6s-2.5-5.6-5.6-5.6c-0.6,0-1.2,0.1-1.8,0.3l-2.5-4.7c1.8-1.2,3.1-2.9,3.8-5l3.3,0.7c0,0.1,0,0.2,0,0.2
	c0,3.1,2.5,5.6,5.6,5.6s5.6-2.5,5.6-5.6s-2.5-5.6-5.6-5.6c-2.4,0-4.4,1.5-5.3,3.6l-3.3-0.7c0-0.3,0.1-0.7,0.1-1
	c0-3.7-2.2-6.9-5.3-8.4l1.4-3.9c0.3,0.1,0.7,0.1,1.1,0.1c3.1,0,5.6-2.5,5.6-5.6S33.2,0,30.1,0s-5.6,2.5-5.6,5.6
	c0,2.1,1.2,3.9,2.8,4.9l-1.5,3.9c-0.7-0.2-1.5-0.3-2.3-0.3c-2.3,0-4.3,0.8-5.9,2.1l-7.3-7.3c0.7-0.9,1.1-2,1.1-3.3
	C11.3,2.5,8.8,0,5.6,0z"/>
</svg>
